<svg width="670" height="756" viewBox="0 0 670 756" fill="none" xmlns="http://www.w3.org/2000/svg">
<g opacity="0.7">
<path d="M246 349.5C327.278 338.979 379 299 379 299C379 299 323.066 383.659 246 400V349.5Z" fill="#A4A4A4"/>
<path d="M444.91 287.621C464.129 241.401 541.144 147.267 474.757 88.6894C452.441 -20.0973 329.15 -8.05541 246.862 17.0492C191.557 33.9223 149.791 67.2584 140.865 42.1538C85.077 88.6894 113.016 134.204 149.791 147.267C183.169 159.122 239.61 170.977 335.582 159.819C352.726 157.825 349.136 210.33 358.296 216.006C372.04 224.522 382.706 170.977 420.386 187.055C458.065 203.133 435.705 277.683 395.259 277.683C381.312 277.683 374.338 316.028 411.995 334.16C439.331 347.593 432.422 317.655 444.91 287.621Z" fill="url(#paint0_linear_4_1276)"/>
<path d="M627.615 577.184C654.171 631.178 669.456 755.705 669.456 755.705H0C0 755.705 15.2915 631.164 41.841 577.184C68.3906 523.203 223.431 473.136 223.431 473.136C253.314 534.483 417.317 534.483 445.944 473.117C445.944 473.117 601.06 523.189 627.615 577.184Z" fill="url(#paint1_linear_4_1276)"/>
</g>
<defs>
<linearGradient id="paint0_linear_4_1276" x1="305.274" y1="337.463" x2="305.274" y2="0" gradientUnits="userSpaceOnUse">
<stop stop-color="#A4A4A4"/>
</linearGradient>
<linearGradient id="paint1_linear_4_1276" x1="334.728" y1="473.117" x2="334.728" y2="755.705" gradientUnits="userSpaceOnUse">
<stop stop-color="#FFC5B3"/>
</linearGradient>
</defs>
</svg>
